<svg width="32" height="32" viewBox="0 0 32 32" fill="none" xmlns="http://www.w3.org/2000/svg">
<path fill-rule="evenodd" clip-rule="evenodd" d="M32 16V23.4537L31.9982 23.8389C31.972 26.5213 31.6648 27.5514 31.1096 28.5895C30.5285 29.6759 29.6759 30.5285 28.5895 31.1096L28.4445 31.1854C27.4035 31.7175 26.2934 32 23.4537 32H16V16H32Z" fill="url(#paint0_linear_1119_3705)"/>
<path fill-rule="evenodd" clip-rule="evenodd" d="M28.5895 0.890442C29.6759 1.47147 30.5285 2.32409 31.1096 3.41051L31.1854 3.55549C31.7175 4.59646 32 5.70663 32 8.54628V16H16V0H23.4537C26.4254 0 27.5031 0.309419 28.5895 0.890442Z" fill="url(#paint1_linear_1119_3705)"/>
<path fill-rule="evenodd" clip-rule="evenodd" d="M16 0V32H8.54629L8.16111 31.9982C5.47875 31.972 4.44865 31.6648 3.41051 31.1096C2.32409 30.5285 1.47147 29.6759 0.890442 28.5895L0.814585 28.4445C0.282526 27.4035 0 26.2934 0 23.4537V8.54628C0 5.57455 0.309419 4.49693 0.890442 3.41051C1.47147 2.32409 2.32409 1.47147 3.41051 0.890442L3.55549 0.814585C4.59646 0.282526 5.70663 0 8.54629 0H16Z" fill="url(#paint2_linear_1119_3705)"/>
<defs>
<linearGradient id="paint0_linear_1119_3705" x1="24" y1="16" x2="32" y2="32" gradientUnits="userSpaceOnUse">
<stop stop-color="#DEF2FE"/>
<stop offset="1" stop-color="#DBF1FE"/>
</linearGradient>
<linearGradient id="paint1_linear_1119_3705" x1="16" y1="0" x2="24" y2="16" gradientUnits="userSpaceOnUse">
<stop stop-color="#57BCFD"/>
<stop offset="1" stop-color="#51B5FD"/>
</linearGradient>
<linearGradient id="paint2_linear_1119_3705" x1="6" y1="2.38419e-07" x2="19.6" y2="27.2" gradientUnits="userSpaceOnUse">
<stop stop-color="#1CA7FD"/>
<stop offset="1" stop-color="#148CFC"/>
</linearGradient>
</defs>
</svg>
